<svg xmlns="http://www.w3.org/2000/svg" viewBox="0 0 158 40">
  <defs/>
  <g fill="none" fill-rule="evenodd">
    <path fill="#DB0E16" d="M13.3 1l8.4 8.5c1 1 1.5 1.4 3.6 1.4h11.8A19.6 19.6 0 0013.3 1zM6.8 4.7l11.6 11.8c1 1 1.6 1.4 3.8 1.4h16.9c-.1-1.2-.3-2.4-.7-3.6H24c-2.4 0-3-.4-4.1-1.6L9.9 2.6c-1.1.6-2.2 1.3-3.1 2.1zm-6 9a19.5 19.5 0 00.2 12l4.8-4.8c.4-.5.6-.9.6-1.2 0-.3-.2-.6-.7-1.1L1 13.7zM2.5 29C3 30 3.7 31 4.5 32L15.7 21c.5-.5.7-.8.7-1.2 0-.3-.2-.7-.7-1.2L4.4 7.2c-.8 1-1.5 2-2.1 3.2l8 8c.5.5.8 1 .8 1.3 0 .4-.3.9-.8 1.4L2.4 29zM7 34.4c.9.9 2 1.6 3 2.2l10-10c1.2-1.2 1.7-1.6 4-1.6h14.5l.7-3.6H22.2c-2.2 0-2.8.4-3.8 1.4L7 34.4zm14.8-4.8c1-1 1.5-1.4 3.6-1.4h11.8a19.6 19.6 0 01-23.9 9.9l8.5-8.5z"/>
    <path fill="#878786" d="M147 38h2v-5.2h.8c.4 0 .9 0 1 .5l2 3.7c.5.8.9 1 1.9 1h1.5v-1.8h-.7c-.5 0-.7-.1-1-.4l-1.5-3c-.4-.7-.8-.8-.8-.8s.4-.2.9-.9l3-4h-2.5l-2.5 3.5c-.3.4-.7.5-1.1.5h-1v-7c0-1-.4-1.3-1.4-1.3h-2v1.8h.8c.3 0 .5.1.5.4v13zm-6.6-11.2a5.6 5.6 0 00-5.9 5.7c0 3.3 2.4 5.7 5.8 5.7a6 6 0 004.4-1.8l-.9-1.5s-1.3 1.5-3.3 1.5c-2 0-3.9-1.4-3.9-3.9 0-2.3 1.6-3.9 3.8-3.9.8 0 2 .4 2 1.1v.6h1.9v-1c0-2-2.6-2.5-4-2.5zM127.9 25h1.6v-2.2h-1.6V25zm-3.5 0h1.6v-2.2h-1.6V25zm-2.2 9c0 3 1.2 4.2 3.7 4.2 2.1 0 3.5-1.4 4-2.5v1.1c0 .7.5 1.2 1.4 1.2h2v-1.8h-.9c-.3 0-.5-.2-.5-.5v-8.6h-2v5c0 2.2-1.4 4.2-3.6 4.2-1.7 0-2-1.2-2-2.7v-5.2c0-.9-.4-1.3-1.4-1.3h-2v1.8h.8c.3 0 .5.1.5.4v4.8zm-8.8 4h2.1v-4.5c0-.7.1-1.3.3-2 .5-1.6 1.7-2.5 3-2.5h.7v-2h-.6c-1.7 0-3 1.2-3.4 2.8v-1.4c0-1-.5-1.3-1.4-1.3h-2v1.8h.9c.3 0 .4.1.4.4V38zm-7.9-1.6c-2 0-3-1.9-3-3.8 0-2.8 1.5-4 3-4 2 0 3.2 1.6 3.2 4s-1.4 3.8-3.2 3.8zm-5 1.6h2v-.8l-.1-.8s1 1.8 3.4 1.8c3 0 5-2.2 5-5.7 0-3.3-1.9-5.7-4.8-5.7-2.5 0-3.5 1.8-3.5 1.8v-4.4c0-1-.4-1.4-1.4-1.4h-2v1.8h.9c.3 0 .4.1.4.4v13zM92 36.5c-1.3 0-2-.8-2-1.7 0-2 2.8-2 4.4-2h.5v.3c0 1.6-1.1 3.4-2.9 3.4zm2.4-5.3c-1.8 0-6.5.2-6.5 3.7 0 2.2 1.8 3.3 3.7 3.3 2.6 0 3.4-2.1 3.4-2.1v.6c0 .8.4 1.3 1.4 1.3h2v-1.8h-1c-.2 0-.4-.2-.4-.5v-4.6c0-2.4-1-4.3-4.5-4.3-1 0-3.7.3-3.7 2V30h2v-.6c0-.7 1.2-.8 1.7-.8 1.7 0 2.4.7 2.4 2.6h-.5zM75.2 38h2v-5.1c0-.6.1-1 .3-1.5a3.5 3.5 0 013.4-2.7c1.8 0 2 1.2 2 2.8v5c0 1 .5 1.5 1.4 1.5h2.1v-1.8h-.9c-.3 0-.5-.2-.5-.5V31c0-2.8-1.1-4.2-3.7-4.2a4.4 4.4 0 00-4 2.5h-.1v-1c0-.8-.4-1.2-1.4-1.2h-2v1.8h1c.2 0 .4.1.4.4V38zm-11-1.7s1.4 2 4.3 2c2.2 0 4-1.3 4-3.3 0-3.6-6-3.1-6-5.2 0-.9.8-1.3 2-1.3.7 0 1.7.3 1.7 1v.5H72v-1c0-1.7-2.3-2.2-3.6-2.2-2.2 0-4 1-4 3 0 3.6 5.9 3.4 5.9 5.3 0 1-.9 1.4-2 1.4-2 0-3.2-1.6-3.2-1.6l-1 1.4zm-9.4-.1c-3 0-5.5-2.6-5.5-6 0-3.2 2.4-5.7 5.5-5.7 3 0 5.6 2.5 5.6 5.8s-2.5 5.9-5.6 5.9zm0-13.7a7.7 7.7 0 00-7.8 7.8c0 4.4 3.4 8 7.8 8s7.8-3.6 7.8-8-3.4-7.8-7.8-7.8zm95-10.4c.3-1.8 1.5-2.8 3.1-2.8 1.4 0 2.5 1 2.6 2.8h-5.8zm3.2-4.4c-3.1 0-5.5 2.2-5.5 5.7 0 3.2 2.3 5.7 5.8 5.7 2.6 0 4.2-1.6 4.2-1.6l-1-1.5s-1.2 1.3-3.1 1.3c-2 0-3.6-1.4-3.8-3.7h8v-.8c0-2.9-1.6-5.1-4.6-5.1zm-15.7 11.1h2.1v-5.1h.8c.4 0 .9 0 1 .4l2 3.7c.5.8.9 1 1.9 1h1.5V17h-.7c-.5 0-.7 0-1-.4l-1.5-3c-.4-.6-.8-.8-.8-.8s.4-.2.9-.8l2.9-4H144l-2.5 3.5c-.3.3-.8.4-1.1.4h-1V5c0-1-.4-1.3-1.4-1.3h-2v1.8h.8c.3 0 .5.2.5.5v13zm-8 0h2.1v-4.4c0-.7 0-1.4.3-2 .5-1.6 1.7-2.6 3-2.6l.6.1V8l-.5-.1c-1.7 0-3 1.2-3.5 2.8V9.2c0-.9-.4-1.3-1.4-1.3h-2v1.8h1c.2 0 .4.2.4.5v8.6zm-10.7-6.7c.3-1.8 1.6-2.8 3.2-2.8 1.4 0 2.5 1 2.6 2.8h-5.8zm3.2-4.4c-3 0-5.4 2.2-5.4 5.7 0 3.2 2.3 5.7 5.8 5.7 2.5 0 4.2-1.6 4.2-1.6l-1-1.5s-1.3 1.3-3.1 1.3c-2 0-3.6-1.4-3.8-3.7h8v-.8c0-2.9-1.6-5.1-4.7-5.1zm-20 11.1h2.3l2.2-7 .3-1.2.4 1.2 2.2 7h2.4l2.9-8.7c0-.3.3-.4.6-.4h.3V8h-1.3c-1 0-1.3.3-1.6 1.2l-2 6.5-.2 1.1-.3-1.1-2.4-7.6h-1.9l-2.3 7.6a16 16 0 00-.3 1.1l-.3-1.1-2-6.5c-.2-1-.6-1.2-1.6-1.2H98v1.8h.3c.4 0 .6.1.7.4l2.8 8.7zm-10-4c0 3.7 2.7 4 4 4h.8V17h-.5c-.8 0-2.3-.2-2.3-2.4v-5h2.6V7.9h-2.6V5h-2v3h-1.5v1.7h1.4v5.2zM86 13.3c0 2.8-1.5 4-3.1 4-1.8 0-3-1.6-3-4s1.3-3.8 3-3.8c2.1 0 3.1 2 3.1 3.8zm-3.4-5.6c-2.9 0-5 2.2-5 5.7 0 3.3 2 5.7 4.9 5.7 2.6 0 3.5-2 3.5-2v.5c0 .8.5 1.2 1.4 1.2h2V17h-.9c-.3 0-.5-.1-.5-.5V5c0-1-.4-1.4-1.3-1.4h-2.1v1.8h.9c.3 0 .5.2.5.5V9.3s-.9-1.6-3.4-1.6zm-12.5 9.7c-1.4 0-2-.9-2-1.8 0-2 2.8-2 4.3-2h.6v.3c0 1.6-1.2 3.5-3 3.5zm2.4-5.4c-1.8 0-6.6.2-6.6 3.8 0 2.1 1.9 3.3 3.7 3.3 2.6 0 3.5-2.2 3.5-2.2v.7c0 .7.4 1.2 1.3 1.2h2V17h-.9c-.3 0-.4-.1-.4-.5V12c0-2.4-1-4.2-4.5-4.2-1 0-3.8.2-3.8 2v1h2v-.5c0-.7 1.2-.9 1.8-.9 1.7 0 2.4.7 2.4 2.6v.1h-.5zm-13 2.8c0 3.7 2.7 4 4 4h.8V17H64c-.8 0-2.3-.2-2.3-2.4v-5h2.6V7.9h-2.6V5h-2v3H58v1.7h1.4v5.2zm-11.3.5s1.6 1.8 3.8 1.8c1.4 0 2.6-.9 2.6-2.2 0-3.2-7.3-2.7-7.3-7.5 0-2.2 2-4 4.8-4 1.6 0 4.4.7 4.4 2.8v1.2h-2v-.7c0-.8-1.2-1.4-2.4-1.4-1.6 0-2.6 1-2.6 2 0 3.1 7.3 2.5 7.3 7.4 0 2.4-1.8 4.4-4.8 4.4-3.3 0-5-2.3-5-2.3l1.2-1.5z"/>
  </g>
</svg>
