<svg width="125" height="24" viewBox="0 0 125 24" fill="none" xmlns="http://www.w3.org/2000/svg">
<path d="M0 2.68563C0 1.2024 1.29081 0 2.88309 0H15.857V5.43841C15.857 10.5926 11.3715 14.771 5.83827 14.771H0V2.68563Z" fill="#3065C0"/>
<path d="M19.5639 8.578C20.7387 6.61972 22.9586 5.40646 25.3669 5.40646C25.7165 5.40646 26 5.6705 26 5.99621V12.5152C26 13.7352 25.4908 14.9073 24.58 15.7839L18.1246 21.9967C17.1741 22.9115 15.8659 23.4279 14.4992 23.4279H7.45593C6.80041 23.4279 6.48522 22.6789 6.96615 22.264L13.214 16.8734C15.1001 15.2461 16.6996 13.3524 17.9537 11.2619L19.5639 8.578Z" fill="#3065C0"/>
<path d="M120.541 16.835C119.749 16.835 118.993 16.727 118.273 16.511C117.565 16.295 117.007 16.031 116.599 15.719L117.319 14.351C117.727 14.627 118.231 14.861 118.831 15.053C119.431 15.245 120.043 15.341 120.667 15.341C121.471 15.341 122.047 15.227 122.395 14.999C122.755 14.771 122.935 14.453 122.935 14.045C122.935 13.745 122.827 13.511 122.611 13.343C122.395 13.175 122.107 13.049 121.747 12.965C121.399 12.881 121.009 12.809 120.577 12.749C120.145 12.677 119.713 12.593 119.281 12.497C118.849 12.389 118.453 12.245 118.093 12.065C117.733 11.873 117.445 11.615 117.229 11.291C117.013 10.955 116.905 10.511 116.905 9.95898C116.905 9.38298 117.067 8.87899 117.391 8.44699C117.715 8.01499 118.171 7.68498 118.759 7.45698C119.359 7.21698 120.067 7.09698 120.883 7.09698C121.507 7.09698 122.137 7.17498 122.773 7.33099C123.421 7.47498 123.949 7.68498 124.357 7.96098L123.619 9.32898C123.187 9.04098 122.737 8.84298 122.269 8.73498C121.801 8.62699 121.333 8.57299 120.865 8.57299C120.109 8.57299 119.545 8.69899 119.173 8.95099C118.801 9.19099 118.615 9.50299 118.615 9.88699C118.615 10.211 118.723 10.463 118.939 10.643C119.167 10.811 119.455 10.943 119.803 11.039C120.163 11.135 120.559 11.219 120.991 11.291C121.423 11.351 121.855 11.435 122.287 11.543C122.719 11.639 123.109 11.777 123.457 11.957C123.817 12.137 124.105 12.389 124.321 12.713C124.549 13.037 124.663 13.469 124.663 14.009C124.663 14.585 124.495 15.083 124.159 15.503C123.823 15.923 123.349 16.253 122.737 16.493C122.125 16.721 121.393 16.835 120.541 16.835Z" fill="black"/>
<path d="M111.14 16.835C110.168 16.835 109.298 16.625 108.53 16.205C107.774 15.785 107.18 15.209 106.748 14.477C106.316 13.745 106.1 12.905 106.1 11.957C106.1 11.009 106.316 10.169 106.748 9.43698C107.18 8.70498 107.774 8.13499 108.53 7.72699C109.298 7.30699 110.168 7.09698 111.14 7.09698C112.004 7.09698 112.772 7.27098 113.444 7.61898C114.128 7.95499 114.656 8.45898 115.028 9.13098L113.714 9.97698C113.402 9.50898 113.018 9.16699 112.562 8.95099C112.118 8.72299 111.638 8.60898 111.122 8.60898C110.498 8.60898 109.94 8.74698 109.448 9.02298C108.956 9.29899 108.566 9.68898 108.278 10.193C107.99 10.685 107.846 11.273 107.846 11.957C107.846 12.641 107.99 13.235 108.278 13.739C108.566 14.243 108.956 14.633 109.448 14.909C109.94 15.185 110.498 15.323 111.122 15.323C111.638 15.323 112.118 15.215 112.562 14.999C113.018 14.771 113.402 14.423 113.714 13.955L115.028 14.783C114.656 15.443 114.128 15.953 113.444 16.313C112.772 16.661 112.004 16.835 111.14 16.835Z" fill="black"/>
<path d="M101.415 16.727V7.18698H103.143V16.727H101.415ZM102.279 5.35098C101.943 5.35098 101.661 5.24298 101.433 5.02698C101.217 4.81098 101.109 4.54698 101.109 4.23498C101.109 3.91098 101.217 3.64098 101.433 3.42498C101.661 3.20898 101.943 3.10098 102.279 3.10098C102.615 3.10098 102.891 3.20898 103.107 3.42498C103.335 3.62898 103.449 3.88698 103.449 4.19898C103.449 4.52298 103.341 4.79898 103.125 5.02698C102.909 5.24298 102.627 5.35098 102.279 5.35098Z" fill="black"/>
<path d="M93.7892 7.09698C94.5572 7.09698 95.2352 7.24698 95.8232 7.54698C96.4112 7.84699 96.8672 8.30299 97.1912 8.91499C97.5272 9.52699 97.6952 10.301 97.6952 11.237V16.727H95.9672V11.435C95.9672 10.511 95.7512 9.81499 95.3192 9.34699C94.8872 8.87899 94.2812 8.64498 93.5012 8.64498C92.9252 8.64498 92.4212 8.76499 91.9892 9.00499C91.5572 9.24499 91.2212 9.59899 90.9812 10.067C90.7532 10.535 90.6392 11.117 90.6392 11.813V16.727H88.9112V11.435C88.9112 10.511 88.6952 9.81499 88.2632 9.34699C87.8432 8.87899 87.2372 8.64498 86.4452 8.64498C85.8812 8.64498 85.3832 8.76499 84.9512 9.00499C84.5192 9.24499 84.1832 9.59899 83.9432 10.067C83.7032 10.535 83.5832 11.117 83.5832 11.813V16.727H81.8552V7.18699H83.5112V9.72498L83.2412 9.07698C83.5412 8.45298 84.0032 7.96698 84.6272 7.61898C85.2512 7.27098 85.9772 7.09698 86.8052 7.09698C87.7172 7.09698 88.5032 7.32499 89.1632 7.78099C89.8232 8.22499 90.2552 8.90299 90.4592 9.81499L89.7572 9.52699C90.0452 8.79499 90.5492 8.20698 91.2692 7.76298C91.9892 7.31898 92.8292 7.09698 93.7892 7.09698Z" fill="black"/>
<path d="M74.5417 16.835C73.5217 16.835 72.6217 16.625 71.8417 16.205C71.0737 15.785 70.4737 15.209 70.0417 14.477C69.6217 13.745 69.4117 12.905 69.4117 11.957C69.4117 11.009 69.6157 10.169 70.0237 9.43698C70.4437 8.70498 71.0137 8.13499 71.7337 7.72699C72.4657 7.30699 73.2877 7.09698 74.1997 7.09698C75.1237 7.09698 75.9397 7.30099 76.6477 7.70898C77.3557 8.11699 77.9077 8.69298 78.3037 9.43698C78.7117 10.169 78.9157 11.027 78.9157 12.011C78.9157 12.083 78.9097 12.167 78.8977 12.263C78.8977 12.359 78.8917 12.449 78.8797 12.533H70.7617V11.291H77.9797L77.2777 11.723C77.2897 11.111 77.1637 10.565 76.8997 10.085C76.6357 9.60499 76.2697 9.23299 75.8017 8.96899C75.3457 8.69299 74.8117 8.55498 74.1997 8.55498C73.5997 8.55498 73.0657 8.69299 72.5977 8.96899C72.1297 9.23299 71.7637 9.61099 71.4997 10.103C71.2357 10.583 71.1037 11.135 71.1037 11.759V12.047C71.1037 12.683 71.2477 13.253 71.5357 13.757C71.8357 14.249 72.2497 14.633 72.7777 14.909C73.3057 15.185 73.9117 15.323 74.5957 15.323C75.1597 15.323 75.6697 15.227 76.1257 15.035C76.5937 14.843 77.0017 14.555 77.3497 14.171L78.3037 15.287C77.8717 15.791 77.3317 16.175 76.6837 16.439C76.0477 16.703 75.3337 16.835 74.5417 16.835Z" fill="black"/>
<path d="M65.893 16.835C64.933 16.835 64.189 16.577 63.661 16.061C63.133 15.545 62.869 14.807 62.869 13.847V5.09897H64.597V13.775C64.597 14.291 64.723 14.687 64.975 14.963C65.239 15.239 65.611 15.377 66.091 15.377C66.631 15.377 67.081 15.227 67.441 14.927L67.981 16.169C67.717 16.397 67.399 16.565 67.027 16.673C66.667 16.781 66.289 16.835 65.893 16.835ZM61.249 8.60897V7.18697H67.333V8.60897H61.249Z" fill="black"/>
<path d="M55.7954 16.835C55.0034 16.835 54.2474 16.727 53.5274 16.511C52.8194 16.295 52.2614 16.031 51.8534 15.719L52.5734 14.351C52.9814 14.627 53.4854 14.861 54.0854 15.053C54.6854 15.245 55.2974 15.341 55.9214 15.341C56.7254 15.341 57.3014 15.227 57.6494 14.999C58.0094 14.771 58.1894 14.453 58.1894 14.045C58.1894 13.745 58.0814 13.511 57.8654 13.343C57.6494 13.175 57.3614 13.049 57.0014 12.965C56.6534 12.881 56.2634 12.809 55.8314 12.749C55.3994 12.677 54.9674 12.593 54.5354 12.497C54.1034 12.389 53.7074 12.245 53.3474 12.065C52.9874 11.873 52.6994 11.615 52.4834 11.291C52.2674 10.955 52.1594 10.511 52.1594 9.95898C52.1594 9.38298 52.3214 8.87899 52.6454 8.44699C52.9694 8.01499 53.4254 7.68498 54.0134 7.45698C54.6134 7.21698 55.3214 7.09698 56.1374 7.09698C56.7614 7.09698 57.3914 7.17498 58.0274 7.33099C58.6754 7.47498 59.2034 7.68498 59.6114 7.96098L58.8734 9.32898C58.4414 9.04098 57.9914 8.84298 57.5234 8.73498C57.0554 8.62699 56.5874 8.57299 56.1194 8.57299C55.3634 8.57299 54.7994 8.69899 54.4274 8.95099C54.0554 9.19099 53.8694 9.50299 53.8694 9.88699C53.8694 10.211 53.9774 10.463 54.1934 10.643C54.4214 10.811 54.7094 10.943 55.0574 11.039C55.4174 11.135 55.8134 11.219 56.2454 11.291C56.6774 11.351 57.1094 11.435 57.5414 11.543C57.9734 11.639 58.3634 11.777 58.7114 11.957C59.0714 12.137 59.3594 12.389 59.5754 12.713C59.8034 13.037 59.9174 13.469 59.9174 14.009C59.9174 14.585 59.7494 15.083 59.4134 15.503C59.0774 15.923 58.6034 16.253 57.9914 16.493C57.3794 16.721 56.6474 16.835 55.7954 16.835Z" fill="black"/>
<path d="M43.0018 20.327C42.5458 20.327 42.1018 20.249 41.6698 20.093C41.2378 19.949 40.8658 19.733 40.5538 19.445L41.2918 18.149C41.5318 18.377 41.7958 18.551 42.0838 18.671C42.3718 18.791 42.6778 18.851 43.0018 18.851C43.4218 18.851 43.7698 18.743 44.0458 18.527C44.3218 18.311 44.5798 17.927 44.8198 17.375L45.4138 16.061L45.5938 15.845L49.3378 7.18698H51.0298L46.4038 17.681C46.1278 18.353 45.8158 18.881 45.4678 19.265C45.1318 19.649 44.7598 19.919 44.3518 20.075C43.9438 20.243 43.4938 20.327 43.0018 20.327ZM45.2698 17.033L40.9138 7.18698H42.7138L46.4218 15.683L45.2698 17.033Z" fill="black"/>
<path d="M35.942 16.835C35.15 16.835 34.394 16.727 33.674 16.511C32.966 16.295 32.408 16.031 32 15.719L32.72 14.351C33.128 14.627 33.632 14.861 34.232 15.053C34.832 15.245 35.444 15.341 36.068 15.341C36.872 15.341 37.448 15.227 37.796 14.999C38.156 14.771 38.336 14.453 38.336 14.045C38.336 13.745 38.228 13.511 38.012 13.343C37.796 13.175 37.508 13.049 37.148 12.965C36.8 12.881 36.41 12.809 35.978 12.749C35.546 12.677 35.114 12.593 34.682 12.497C34.25 12.389 33.854 12.245 33.494 12.065C33.134 11.873 32.846 11.615 32.63 11.291C32.414 10.955 32.306 10.511 32.306 9.95898C32.306 9.38298 32.468 8.87899 32.792 8.44699C33.116 8.01499 33.572 7.68498 34.16 7.45698C34.76 7.21698 35.468 7.09698 36.284 7.09698C36.908 7.09698 37.538 7.17498 38.174 7.33099C38.822 7.47498 39.35 7.68498 39.758 7.96098L39.02 9.32898C38.588 9.04098 38.138 8.84298 37.67 8.73498C37.202 8.62699 36.734 8.57299 36.266 8.57299C35.51 8.57299 34.946 8.69899 34.574 8.95099C34.202 9.19099 34.016 9.50299 34.016 9.88699C34.016 10.211 34.124 10.463 34.34 10.643C34.568 10.811 34.856 10.943 35.204 11.039C35.564 11.135 35.96 11.219 36.392 11.291C36.824 11.351 37.256 11.435 37.688 11.543C38.12 11.639 38.51 11.777 38.858 11.957C39.218 12.137 39.506 12.389 39.722 12.713C39.95 13.037 40.064 13.469 40.064 14.009C40.064 14.585 39.896 15.083 39.56 15.503C39.224 15.923 38.75 16.253 38.138 16.493C37.526 16.721 36.794 16.835 35.942 16.835Z" fill="black"/>
</svg>
