<svg width="121" height="24" viewBox="0 0 121 24" fill="none" xmlns="http://www.w3.org/2000/svg">
<path d="M0 2.68563C0 1.2024 1.29081 0 2.88309 0H15.857V5.43841C15.857 10.5926 11.3715 14.771 5.83827 14.771H0V2.68563Z" fill="#3065C0"/>
<path d="M19.5639 8.578C20.7387 6.61972 22.9586 5.40646 25.3669 5.40646C25.7165 5.40646 26 5.6705 26 5.99621V12.5152C26 13.7352 25.4908 14.9073 24.58 15.7839L18.1246 21.9967C17.1741 22.9115 15.8658 23.4279 14.4992 23.4279H7.45594C6.80041 23.4279 6.48522 22.6789 6.96615 22.264L13.214 16.8734C15.1001 15.2461 16.6996 13.3524 17.9537 11.2619L19.5639 8.578Z" fill="#3065C0"/>
<path d="M37.0081 17.394C36.1441 17.394 35.3521 17.226 34.6321 16.89C33.9241 16.542 33.3601 16.05 32.9401 15.414L34.1461 14.28C34.4101 14.796 34.7881 15.198 35.2801 15.486C35.7841 15.774 36.3661 15.918 37.0261 15.918C37.5421 15.918 37.9621 15.816 38.2861 15.612C38.6101 15.408 38.7721 15.126 38.7721 14.766C38.7721 14.526 38.6941 14.322 38.5381 14.154C38.3941 13.974 38.1061 13.836 37.6741 13.74L35.9641 13.362C35.0161 13.146 34.3381 12.828 33.9301 12.408C33.5341 11.988 33.3361 11.454 33.3361 10.806C33.3361 10.314 33.4741 9.86397 33.7501 9.45597C34.0381 9.03597 34.4521 8.69397 34.9921 8.42997C35.5441 8.16597 36.2102 8.03397 36.9902 8.03397C37.8542 8.03397 38.5921 8.19597 39.2041 8.51997C39.8281 8.84397 40.3021 9.29997 40.6261 9.88797L39.4202 10.95C39.2042 10.458 38.8681 10.098 38.4121 9.86997C37.9681 9.62997 37.5121 9.50997 37.0441 9.50997C36.6721 9.50997 36.3481 9.55797 36.0721 9.65397C35.8081 9.74997 35.6041 9.88797 35.4601 10.068C35.3281 10.248 35.2621 10.452 35.2621 10.68C35.2621 10.92 35.3522 11.136 35.5322 11.328C35.7122 11.52 36.0241 11.664 36.4681 11.76L38.3941 12.174C39.2341 12.354 39.8281 12.642 40.1761 13.038C40.5361 13.434 40.7161 13.926 40.7161 14.514C40.7161 15.366 40.3862 16.062 39.7262 16.602C39.0782 17.13 38.1721 17.394 37.0081 17.394Z" fill="black"/>
<path d="M50.6602 8.21397L46.9162 18.186C46.6762 18.858 46.4062 19.404 46.1062 19.824C45.8182 20.256 45.4702 20.574 45.0622 20.778C44.6542 20.982 44.1622 21.084 43.5862 21.084C43.1662 21.084 42.7762 21.024 42.4162 20.904C42.0562 20.796 41.7442 20.646 41.4802 20.454L41.9482 18.996C42.1522 19.188 42.3802 19.326 42.6322 19.41C42.8842 19.494 43.1542 19.536 43.4422 19.536C43.8022 19.536 44.1022 19.446 44.3422 19.266C44.5822 19.086 44.7922 18.75 44.9722 18.258L45.3502 17.268L44.4142 15.018L41.7142 8.21397H43.8742L45.8002 13.974L46.2682 15.612L46.8262 13.848L48.6622 8.21397H50.6602Z" fill="black"/>
<path d="M55.8421 17.394C54.9781 17.394 54.1861 17.226 53.4661 16.89C52.7581 16.542 52.1941 16.05 51.7741 15.414L52.9801 14.28C53.2441 14.796 53.6221 15.198 54.1141 15.486C54.6181 15.774 55.2001 15.918 55.8601 15.918C56.3761 15.918 56.7961 15.816 57.1201 15.612C57.4441 15.408 57.6061 15.126 57.6061 14.766C57.6061 14.526 57.5281 14.322 57.3721 14.154C57.2281 13.974 56.9401 13.836 56.5081 13.74L54.7981 13.362C53.8501 13.146 53.1721 12.828 52.7641 12.408C52.3681 11.988 52.1701 11.454 52.1701 10.806C52.1701 10.314 52.3081 9.86397 52.5841 9.45597C52.8721 9.03597 53.2861 8.69397 53.8261 8.42997C54.3781 8.16597 55.0441 8.03397 55.8241 8.03397C56.6881 8.03397 57.4261 8.19597 58.0381 8.51997C58.6621 8.84397 59.1361 9.29997 59.4601 9.88797L58.2541 10.95C58.0381 10.458 57.7021 10.098 57.2461 9.86997C56.8021 9.62997 56.3461 9.50997 55.8781 9.50997C55.5061 9.50997 55.1821 9.55797 54.9061 9.65397C54.6421 9.74997 54.4381 9.88797 54.2941 10.068C54.1621 10.248 54.0961 10.452 54.0961 10.68C54.0961 10.92 54.1861 11.136 54.3661 11.328C54.5461 11.52 54.8581 11.664 55.3021 11.76L57.2281 12.174C58.0681 12.354 58.6621 12.642 59.0101 13.038C59.3701 13.434 59.5501 13.926 59.5501 14.514C59.5501 15.366 59.2201 16.062 58.5601 16.602C57.9121 17.13 57.0061 17.394 55.8421 17.394Z" fill="black"/>
<path d="M64.873 5.54997V14.478C64.873 14.934 64.987 15.276 65.215 15.504C65.443 15.72 65.749 15.828 66.133 15.828C66.445 15.828 66.709 15.78 66.925 15.684C67.153 15.576 67.357 15.438 67.537 15.27L67.933 16.638C67.657 16.878 67.327 17.064 66.943 17.196C66.559 17.328 66.139 17.394 65.683 17.394C64.891 17.394 64.231 17.196 63.703 16.8C63.187 16.404 62.929 15.738 62.929 14.802V6.08997L64.873 5.54997ZM67.789 8.21397V9.72597H61.291V8.21397H67.789Z" fill="black"/>
<path d="M74.0039 17.394C73.1279 17.394 72.3599 17.208 71.6999 16.836C71.0399 16.464 70.5239 15.93 70.1519 15.234C69.7799 14.526 69.5939 13.686 69.5939 12.714C69.5939 11.73 69.7739 10.89 70.1339 10.194C70.5059 9.49797 71.0159 8.96397 71.6639 8.59197C72.3239 8.21997 73.0679 8.03397 73.8959 8.03397C74.7479 8.03397 75.4739 8.21397 76.0739 8.57397C76.6739 8.93397 77.1299 9.43197 77.4419 10.068C77.7659 10.692 77.9279 11.412 77.9279 12.228C77.9279 12.432 77.9219 12.618 77.9099 12.786C77.8979 12.954 77.8859 13.098 77.8739 13.218H70.8539V11.886H77.0099L76.0559 12.174C76.0559 11.61 75.9659 11.136 75.7859 10.752C75.6179 10.356 75.3719 10.056 75.0479 9.85197C74.7239 9.64797 74.3399 9.54597 73.8959 9.54597C73.3919 9.54597 72.9539 9.67197 72.5819 9.92397C72.2219 10.164 71.9459 10.524 71.7539 11.004C71.5619 11.472 71.4659 12.048 71.4659 12.732C71.4659 13.416 71.5679 13.992 71.7719 14.46C71.9759 14.928 72.2699 15.282 72.6539 15.522C73.0379 15.762 73.4879 15.882 74.0039 15.882C74.5559 15.882 75.0119 15.768 75.3719 15.54C75.7319 15.3 76.0139 14.976 76.2179 14.568L77.7659 15.252C77.5619 15.696 77.2739 16.08 76.9019 16.404C76.5419 16.728 76.1159 16.974 75.6239 17.142C75.1319 17.31 74.5919 17.394 74.0039 17.394Z" fill="black"/>
<path d="M80.7998 17.214V8.21397H82.5098L82.5998 9.81597C82.8998 9.22797 83.3138 8.78397 83.8418 8.48397C84.3698 8.18397 84.9398 8.03397 85.5518 8.03397C86.1998 8.03397 86.7878 8.18997 87.3158 8.50197C87.8558 8.80197 88.2518 9.25797 88.5038 9.86997C88.6838 9.46197 88.9358 9.12597 89.2598 8.86197C89.5958 8.58597 89.9678 8.38197 90.3758 8.24997C90.7838 8.10597 91.1918 8.03397 91.5998 8.03397C92.1758 8.03397 92.7038 8.15397 93.1838 8.39397C93.6758 8.63397 94.0718 8.99997 94.3718 9.49197C94.6718 9.98397 94.8218 10.608 94.8218 11.364V17.214H92.8778V11.688C92.8778 10.956 92.7038 10.428 92.3558 10.104C92.0078 9.77997 91.5758 9.61797 91.0598 9.61797C90.6518 9.61797 90.2738 9.71997 89.9258 9.92397C89.5778 10.128 89.3018 10.434 89.0978 10.842C88.8938 11.238 88.7918 11.718 88.7918 12.282V17.214H86.8478V11.688C86.8478 10.956 86.6678 10.428 86.3078 10.104C85.9598 9.77997 85.5278 9.61797 85.0118 9.61797C84.6638 9.61797 84.3098 9.71397 83.9498 9.90597C83.6018 10.098 83.3138 10.398 83.0858 10.806C82.8578 11.214 82.7438 11.742 82.7438 12.39V17.214H80.7998Z" fill="black"/>
<path d="M100.141 8.21397V17.214H98.1972V8.21397H100.141ZM99.2232 6.73797C98.7912 6.73797 98.4552 6.63597 98.2152 6.43197C97.9872 6.21597 97.8732 5.90997 97.8732 5.51397C97.8732 5.11797 97.9872 4.81797 98.2152 4.61397C98.4552 4.39797 98.7912 4.28997 99.2232 4.28997C99.6552 4.28997 99.9852 4.39797 100.213 4.61397C100.441 4.81797 100.555 5.11797 100.555 5.51397C100.555 5.90997 100.441 6.21597 100.213 6.43197C99.9852 6.63597 99.6552 6.73797 99.2232 6.73797Z" fill="black"/>
<path d="M107.351 8.03397C108.059 8.03397 108.665 8.14797 109.169 8.37597C109.685 8.59197 110.105 8.89197 110.429 9.27597C110.765 9.64797 111.011 10.08 111.167 10.572L109.349 11.292C109.217 10.716 108.983 10.284 108.647 9.99597C108.323 9.69597 107.891 9.54597 107.351 9.54597C106.847 9.54597 106.415 9.67197 106.055 9.92397C105.695 10.164 105.419 10.524 105.227 11.004C105.035 11.472 104.939 12.048 104.939 12.732C104.939 13.404 105.035 13.98 105.227 14.46C105.431 14.928 105.713 15.282 106.073 15.522C106.445 15.762 106.877 15.882 107.369 15.882C107.765 15.882 108.107 15.816 108.395 15.684C108.683 15.54 108.917 15.336 109.097 15.072C109.277 14.808 109.403 14.49 109.475 14.118L111.239 14.712C111.083 15.252 110.831 15.726 110.483 16.134C110.147 16.53 109.715 16.842 109.187 17.07C108.659 17.286 108.059 17.394 107.387 17.394C106.511 17.394 105.743 17.208 105.083 16.836C104.423 16.464 103.907 15.93 103.535 15.234C103.175 14.526 102.995 13.686 102.995 12.714C102.995 11.742 103.181 10.908 103.553 10.212C103.925 9.50397 104.435 8.96397 105.083 8.59197C105.743 8.21997 106.499 8.03397 107.351 8.03397Z" fill="black"/>
<path d="M117.213 17.394C116.349 17.394 115.557 17.226 114.837 16.89C114.129 16.542 113.565 16.05 113.145 15.414L114.351 14.28C114.615 14.796 114.993 15.198 115.485 15.486C115.989 15.774 116.571 15.918 117.231 15.918C117.747 15.918 118.167 15.816 118.491 15.612C118.815 15.408 118.977 15.126 118.977 14.766C118.977 14.526 118.899 14.322 118.743 14.154C118.599 13.974 118.311 13.836 117.879 13.74L116.169 13.362C115.221 13.146 114.543 12.828 114.135 12.408C113.739 11.988 113.541 11.454 113.541 10.806C113.541 10.314 113.679 9.86397 113.955 9.45597C114.243 9.03597 114.657 8.69397 115.197 8.42997C115.749 8.16597 116.415 8.03397 117.195 8.03397C118.059 8.03397 118.797 8.19597 119.409 8.51997C120.033 8.84397 120.507 9.29997 120.831 9.88797L119.625 10.95C119.409 10.458 119.073 10.098 118.617 9.86997C118.173 9.62997 117.717 9.50997 117.249 9.50997C116.877 9.50997 116.553 9.55797 116.277 9.65397C116.013 9.74997 115.809 9.88797 115.665 10.068C115.533 10.248 115.467 10.452 115.467 10.68C115.467 10.92 115.557 11.136 115.737 11.328C115.917 11.52 116.229 11.664 116.673 11.76L118.599 12.174C119.439 12.354 120.033 12.642 120.381 13.038C120.741 13.434 120.921 13.926 120.921 14.514C120.921 15.366 120.591 16.062 119.931 16.602C119.283 17.13 118.377 17.394 117.213 17.394Z" fill="black"/>
</svg>
