<svg width="121" height="25" viewBox="0 0 121 25" fill="none" xmlns="http://www.w3.org/2000/svg">
<path d="M37.0081 18.2623C36.1441 18.2623 35.3521 18.0943 34.6321 17.7583C33.9241 17.4103 33.3601 16.9183 32.9401 16.2823L34.1461 15.1483C34.4101 15.6643 34.7881 16.0663 35.2801 16.3543C35.7841 16.6423 36.3661 16.7863 37.0261 16.7863C37.5421 16.7863 37.9621 16.6843 38.2861 16.4803C38.6101 16.2763 38.7721 15.9943 38.7721 15.6343C38.7721 15.3943 38.6941 15.1903 38.5381 15.0223C38.3941 14.8423 38.1061 14.7043 37.6741 14.6083L35.9641 14.2303C35.0161 14.0143 34.3381 13.6963 33.9301 13.2763C33.5341 12.8563 33.3361 12.3223 33.3361 11.6743C33.3361 11.1823 33.4741 10.7323 33.7501 10.3243C34.0381 9.90433 34.4521 9.56233 34.9921 9.29833C35.5441 9.03433 36.2102 8.90232 36.9902 8.90232C37.8542 8.90232 38.5921 9.06433 39.2041 9.38833C39.8281 9.71233 40.3021 10.1683 40.6261 10.7563L39.4202 11.8183C39.2042 11.3263 38.8681 10.9663 38.4121 10.7383C37.9681 10.4983 37.5121 10.3783 37.0441 10.3783C36.6721 10.3783 36.3481 10.4263 36.0721 10.5223C35.8081 10.6183 35.6041 10.7563 35.4601 10.9363C35.3281 11.1163 35.2621 11.3203 35.2621 11.5483C35.2621 11.7883 35.3522 12.0043 35.5322 12.1963C35.7122 12.3883 36.0241 12.5323 36.4681 12.6283L38.3941 13.0423C39.2341 13.2223 39.8281 13.5103 40.1761 13.9063C40.5361 14.3023 40.7161 14.7943 40.7161 15.3823C40.7161 16.2343 40.3862 16.9303 39.7262 17.4703C39.0782 17.9983 38.1721 18.2623 37.0081 18.2623Z" fill="white"/>
<path d="M50.6602 9.08233L46.9162 19.0543C46.6762 19.7263 46.4062 20.2723 46.1062 20.6923C45.8182 21.1243 45.4702 21.4423 45.0622 21.6463C44.6542 21.8503 44.1622 21.9523 43.5862 21.9523C43.1662 21.9523 42.7762 21.8923 42.4162 21.7723C42.0562 21.6643 41.7442 21.5143 41.4802 21.3223L41.9482 19.8643C42.1522 20.0563 42.3802 20.1943 42.6322 20.2783C42.8842 20.3623 43.1542 20.4043 43.4422 20.4043C43.8022 20.4043 44.1022 20.3143 44.3422 20.1343C44.5822 19.9543 44.7922 19.6183 44.9722 19.1263L45.3502 18.1363L44.4142 15.8863L41.7142 9.08233H43.8742L45.8002 14.8423L46.2682 16.4803L46.8262 14.7163L48.6622 9.08233H50.6602Z" fill="white"/>
<path d="M55.8421 18.2623C54.9781 18.2623 54.1861 18.0943 53.4661 17.7583C52.7581 17.4103 52.1941 16.9183 51.7741 16.2823L52.9801 15.1483C53.2441 15.6643 53.6221 16.0663 54.1141 16.3543C54.6181 16.6423 55.2001 16.7863 55.8601 16.7863C56.3761 16.7863 56.7961 16.6843 57.1201 16.4803C57.4441 16.2763 57.6061 15.9943 57.6061 15.6343C57.6061 15.3943 57.5281 15.1903 57.3721 15.0223C57.2281 14.8423 56.9401 14.7043 56.5081 14.6083L54.7981 14.2303C53.8501 14.0143 53.1721 13.6963 52.7641 13.2763C52.3681 12.8563 52.1701 12.3223 52.1701 11.6743C52.1701 11.1823 52.3081 10.7323 52.5841 10.3243C52.8721 9.90433 53.2861 9.56233 53.8261 9.29833C54.3781 9.03433 55.0441 8.90232 55.8241 8.90232C56.6881 8.90232 57.4261 9.06433 58.0381 9.38833C58.6621 9.71233 59.1361 10.1683 59.4601 10.7563L58.2541 11.8183C58.0381 11.3263 57.7021 10.9663 57.2461 10.7383C56.8021 10.4983 56.3461 10.3783 55.8781 10.3783C55.5061 10.3783 55.1821 10.4263 54.9061 10.5223C54.6421 10.6183 54.4381 10.7563 54.2941 10.9363C54.1621 11.1163 54.0961 11.3203 54.0961 11.5483C54.0961 11.7883 54.1861 12.0043 54.3661 12.1963C54.5461 12.3883 54.8581 12.5323 55.3021 12.6283L57.2281 13.0423C58.0681 13.2223 58.6621 13.5103 59.0101 13.9063C59.3701 14.3023 59.5501 14.7943 59.5501 15.3823C59.5501 16.2343 59.2201 16.9303 58.5601 17.4703C57.9121 17.9983 57.0061 18.2623 55.8421 18.2623Z" fill="white"/>
<path d="M64.873 6.41833V15.3463C64.873 15.8023 64.987 16.1443 65.215 16.3723C65.443 16.5883 65.749 16.6963 66.133 16.6963C66.445 16.6963 66.709 16.6483 66.925 16.5523C67.153 16.4443 67.357 16.3063 67.537 16.1383L67.933 17.5063C67.657 17.7463 67.327 17.9323 66.943 18.0643C66.559 18.1963 66.139 18.2623 65.683 18.2623C64.891 18.2623 64.231 18.0643 63.703 17.6683C63.187 17.2723 62.929 16.6063 62.929 15.6703V6.95833L64.873 6.41833ZM67.789 9.08233V10.5943H61.291V9.08233H67.789Z" fill="white"/>
<path d="M74.0039 18.2623C73.1279 18.2623 72.3599 18.0763 71.6999 17.7043C71.0399 17.3323 70.5239 16.7983 70.1519 16.1023C69.7799 15.3943 69.5939 14.5543 69.5939 13.5823C69.5939 12.5983 69.7739 11.7583 70.1339 11.0623C70.5059 10.3663 71.0159 9.83233 71.6639 9.46033C72.3239 9.08833 73.0679 8.90232 73.8959 8.90232C74.7479 8.90232 75.4739 9.08233 76.0739 9.44233C76.6739 9.80233 77.1299 10.3003 77.4419 10.9363C77.7659 11.5603 77.9279 12.2803 77.9279 13.0963C77.9279 13.3003 77.9219 13.4863 77.9099 13.6543C77.8979 13.8223 77.8859 13.9663 77.8739 14.0863H70.8539V12.7543H77.0099L76.0559 13.0423C76.0559 12.4783 75.9659 12.0043 75.7859 11.6203C75.6179 11.2243 75.3719 10.9243 75.0479 10.7203C74.7239 10.5163 74.3399 10.4143 73.8959 10.4143C73.3919 10.4143 72.9539 10.5403 72.5819 10.7923C72.2219 11.0323 71.9459 11.3923 71.7539 11.8723C71.5619 12.3403 71.4659 12.9163 71.4659 13.6003C71.4659 14.2843 71.5679 14.8603 71.7719 15.3283C71.9759 15.7963 72.2699 16.1503 72.6539 16.3903C73.0379 16.6303 73.4879 16.7503 74.0039 16.7503C74.5559 16.7503 75.0119 16.6363 75.3719 16.4083C75.7319 16.1683 76.0139 15.8443 76.2179 15.4363L77.7659 16.1203C77.5619 16.5643 77.2739 16.9483 76.9019 17.2723C76.5419 17.5963 76.1159 17.8423 75.6239 18.0103C75.1319 18.1783 74.5919 18.2623 74.0039 18.2623Z" fill="white"/>
<path d="M80.7998 18.0823V9.08233H82.5098L82.5998 10.6843C82.8998 10.0963 83.3138 9.65233 83.8418 9.35233C84.3698 9.05233 84.9398 8.90232 85.5518 8.90232C86.1998 8.90232 86.7878 9.05832 87.3158 9.37033C87.8558 9.67033 88.2518 10.1263 88.5038 10.7383C88.6838 10.3303 88.9358 9.99433 89.2598 9.73033C89.5958 9.45433 89.9678 9.25033 90.3758 9.11833C90.7838 8.97432 91.1918 8.90232 91.5998 8.90232C92.1758 8.90232 92.7038 9.02233 93.1838 9.26233C93.6758 9.50233 94.0718 9.86833 94.3718 10.3603C94.6718 10.8523 94.8218 11.4763 94.8218 12.2323V18.0823H92.8778V12.5563C92.8778 11.8243 92.7038 11.2963 92.3558 10.9723C92.0078 10.6483 91.5758 10.4863 91.0598 10.4863C90.6518 10.4863 90.2738 10.5883 89.9258 10.7923C89.5778 10.9963 89.3018 11.3023 89.0978 11.7103C88.8938 12.1063 88.7918 12.5863 88.7918 13.1503V18.0823H86.8478V12.5563C86.8478 11.8243 86.6678 11.2963 86.3078 10.9723C85.9598 10.6483 85.5278 10.4863 85.0118 10.4863C84.6638 10.4863 84.3098 10.5823 83.9498 10.7743C83.6018 10.9663 83.3138 11.2663 83.0858 11.6743C82.8578 12.0823 82.7438 12.6103 82.7438 13.2583V18.0823H80.7998Z" fill="white"/>
<path d="M100.141 9.08233V18.0823H98.1972V9.08233H100.141ZM99.2232 7.60633C98.7912 7.60633 98.4552 7.50433 98.2152 7.30033C97.9872 7.08433 97.8732 6.77833 97.8732 6.38233C97.8732 5.98633 97.9872 5.68633 98.2152 5.48233C98.4552 5.26632 98.7912 5.15833 99.2232 5.15833C99.6552 5.15833 99.9852 5.26632 100.213 5.48233C100.441 5.68633 100.555 5.98633 100.555 6.38233C100.555 6.77833 100.441 7.08433 100.213 7.30033C99.9852 7.50433 99.6552 7.60633 99.2232 7.60633Z" fill="white"/>
<path d="M107.351 8.90232C108.059 8.90232 108.665 9.01633 109.169 9.24433C109.685 9.46033 110.105 9.76033 110.429 10.1443C110.765 10.5163 111.011 10.9483 111.167 11.4403L109.349 12.1603C109.217 11.5843 108.983 11.1523 108.647 10.8643C108.323 10.5643 107.891 10.4143 107.351 10.4143C106.847 10.4143 106.415 10.5403 106.055 10.7923C105.695 11.0323 105.419 11.3923 105.227 11.8723C105.035 12.3403 104.939 12.9163 104.939 13.6003C104.939 14.2723 105.035 14.8483 105.227 15.3283C105.431 15.7963 105.713 16.1503 106.073 16.3903C106.445 16.6303 106.877 16.7503 107.369 16.7503C107.765 16.7503 108.107 16.6843 108.395 16.5523C108.683 16.4083 108.917 16.2043 109.097 15.9403C109.277 15.6763 109.403 15.3583 109.475 14.9863L111.239 15.5803C111.083 16.1203 110.831 16.5943 110.483 17.0023C110.147 17.3983 109.715 17.7103 109.187 17.9383C108.659 18.1543 108.059 18.2623 107.387 18.2623C106.511 18.2623 105.743 18.0763 105.083 17.7043C104.423 17.3323 103.907 16.7983 103.535 16.1023C103.175 15.3943 102.995 14.5543 102.995 13.5823C102.995 12.6103 103.181 11.7763 103.553 11.0803C103.925 10.3723 104.435 9.83233 105.083 9.46033C105.743 9.08833 106.499 8.90232 107.351 8.90232Z" fill="white"/>
<path d="M117.213 18.2623C116.349 18.2623 115.557 18.0943 114.837 17.7583C114.129 17.4103 113.565 16.9183 113.145 16.2823L114.351 15.1483C114.615 15.6643 114.993 16.0663 115.485 16.3543C115.989 16.6423 116.571 16.7863 117.231 16.7863C117.747 16.7863 118.167 16.6843 118.491 16.4803C118.815 16.2763 118.977 15.9943 118.977 15.6343C118.977 15.3943 118.899 15.1903 118.743 15.0223C118.599 14.8423 118.311 14.7043 117.879 14.6083L116.169 14.2303C115.221 14.0143 114.543 13.6963 114.135 13.2763C113.739 12.8563 113.541 12.3223 113.541 11.6743C113.541 11.1823 113.679 10.7323 113.955 10.3243C114.243 9.90433 114.657 9.56233 115.197 9.29833C115.749 9.03433 116.415 8.90232 117.195 8.90232C118.059 8.90232 118.797 9.06433 119.409 9.38833C120.033 9.71233 120.507 10.1683 120.831 10.7563L119.625 11.8183C119.409 11.3263 119.073 10.9663 118.617 10.7383C118.173 10.4983 117.717 10.3783 117.249 10.3783C116.877 10.3783 116.553 10.4263 116.277 10.5223C116.013 10.6183 115.809 10.7563 115.665 10.9363C115.533 11.1163 115.467 11.3203 115.467 11.5483C115.467 11.7883 115.557 12.0043 115.737 12.1963C115.917 12.3883 116.229 12.5323 116.673 12.6283L118.599 13.0423C119.439 13.2223 120.033 13.5103 120.381 13.9063C120.741 14.3023 120.921 14.7943 120.921 15.3823C120.921 16.2343 120.591 16.9303 119.931 17.4703C119.283 17.9983 118.377 18.2623 117.213 18.2623Z" fill="white"/>
<path d="M0 3.55398C0 2.07075 1.29081 0.868347 2.88309 0.868347H15.857V6.30675C15.857 11.461 11.3715 15.6393 5.83827 15.6393H0V3.55398Z" fill="#3065C0"/>
<path d="M19.5639 9.44635C20.7387 7.48807 22.9586 6.2748 25.3669 6.2748C25.7165 6.2748 26 6.53884 26 6.86455V13.3836C26 14.6035 25.4908 15.7756 24.58 16.6522L18.1246 22.8651C17.1741 23.7798 15.8658 24.2963 14.4992 24.2963H7.45594C6.80041 24.2963 6.48522 23.5472 6.96615 23.1323L13.214 17.7417C15.1001 16.1144 16.6996 14.2208 17.9537 12.1302L19.5639 9.44635Z" fill="#3065C0"/>
</svg>
